<?xml version="1.0" encoding="UTF-8"?>
<svg width="1417px" height="600px" viewBox="0 0 1417 600" version="1.1" xmlns="http://www.w3.org/2000/svg" xmlns:xlink="http://www.w3.org/1999/xlink">
    <title>K-12-Pins-Roof-Closed</title>
    <defs>
        <path d="M0,0 L1417,0 L1417,600 L0,600 L0,0 Z" id="path-1"></path>
        <rect id="path-2" x="0" y="0" width="1417" height="600"></rect>
    </defs>
    <g id="K-12-Pins-Roof-Closed" stroke="none" fill="none" xlink:href="#path-1" fill-rule="evenodd">
        <g id="lobby" stroke-width="1" transform="translate(888.2522, 167)">
            <g id="Group-60" transform="translate(7, 0)" fill-rule="nonzero">
                <g id="Group-53">
                    <g id="add_location_24dp_5F6368_FILL1_wght400_GRAD0_opsz24" fill="#34A8F6">
                        <path d="M17.9375,31.16 L23.0625,31.16 L23.0625,23.37 L30.75,23.37 L30.75,18.1766667 L23.0625,18.1766667 L23.0625,10.3866667 L17.9375,10.3866667 L17.9375,18.1766667 L10.25,18.1766667 L10.25,23.37 L17.9375,23.37 L17.9375,31.16 Z M20.5,51.9333333 C13.6239583,46.0042778 8.48828125,40.4971806 5.09296875,35.4120417 C1.69765625,30.3269028 0,25.6204444 0,21.2926667 C0,14.801 2.06067708,9.62930556 6.18203125,5.77758333 C10.3033854,1.92586111 15.0760417,0 20.5,0 C25.9239583,0 30.6966146,1.92586111 34.8179687,5.77758333 C38.9393229,9.62930556 41,14.801 41,21.2926667 C41,25.6204444 39.3023437,30.3269028 35.9070312,35.4120417 C32.5117188,40.4971806 27.3760417,46.0042778 20.5,51.9333333 Z" id="Shape"></path>
                    </g>
                    <rect id="Rectangle" fill="#34A8F6" x="9.56666667" y="9.56666667" width="21.8666667" height="21.8666667"></rect>
                    <g id="Group-59" transform="translate(6.8333, 8.2)">
                        <rect id="Rectangle" fill="#FFFFFF" x="7.175" y="5.38125" width="14.35" height="17.9375"></rect>
                        <g id="add_location_24dp_5F6368_FILL1_wght400_GRAD0_opsz24" fill="#34A8F6">
                            <path d="M12.55625,21.525 L16.14375,21.525 L16.14375,16.14375 L21.525,16.14375 L21.525,12.55625 L16.14375,12.55625 L16.14375,7.175 L12.55625,7.175 L12.55625,12.55625 L7.175,12.55625 L7.175,16.14375 L12.55625,16.14375 L12.55625,21.525 Z M14.35,35.875 C9.53677083,31.7792708 5.94179687,27.975026 3.56507812,24.4622656 C1.18835937,20.9495052 0,17.6983333 0,14.70875 C0,10.224375 1.44247396,6.65182292 4.32742187,3.99109375 C7.21236979,1.33036458 10.5532292,0 14.35,0 C18.1467708,0 21.4876302,1.33036458 24.3725781,3.99109375 C27.257526,6.65182292 28.7,10.224375 28.7,14.70875 C28.7,17.6983333 27.5116406,20.9495052 25.1349219,24.4622656 C22.7582031,27.975026 19.1632292,31.7792708 14.35,35.875 Z" id="Shape"></path>
                        </g>
                    </g>
                </g>
                <g id="Group-22" transform="translate(6.8333, 6.8333)">
                    <circle id="Oval" stroke="#FFFFFF" stroke-width="3" fill="#34A8F6" cx="13.6666667" cy="13.6666667" r="12.1666667"></circle>
                    <g id="add_24dp_FILL0_wght400_GRAD0_opsz24" transform="translate(7.2889, 7.2889)" fill="#FFFFFF">
                        <polygon id="Path" points="5.46666667 7.28888889 0 7.28888889 0 5.46666667 5.46666667 5.46666667 5.46666667 0 7.28888889 0 7.28888889 5.46666667 12.7555556 5.46666667 12.7555556 7.28888889 7.28888889 7.28888889 7.28888889 12.7555556 5.46666667 12.7555556"></polygon>
                    </g>
                </g>
            </g>
            <g id="Lobby" transform="translate(-9, 0)" fill="#FFFFFF" fill-rule="nonzero" font-family="HelveticaNeue-Medium, Helvetica Neue" font-size="18" font-weight="400">
                <text>
                    <tspan x="9.171" y="68.4618835">Lobby</tspan>
                </text>
            </g>
        </g>
        <g id="gym" stroke-width="1" transform="translate(724.2522, 97)">
            <g id="Group-60" transform="translate(34, 0)" fill-rule="nonzero">
                <g id="Group-53">
                    <g id="add_location_24dp_5F6368_FILL1_wght400_GRAD0_opsz24" fill="#34A8F6">
                        <path d="M17.9375,31.16 L23.0625,31.16 L23.0625,23.37 L30.75,23.37 L30.75,18.1766667 L23.0625,18.1766667 L23.0625,10.3866667 L17.9375,10.3866667 L17.9375,18.1766667 L10.25,18.1766667 L10.25,23.37 L17.9375,23.37 L17.9375,31.16 Z M20.5,51.9333333 C13.6239583,46.0042778 8.48828125,40.4971806 5.09296875,35.4120417 C1.69765625,30.3269028 0,25.6204444 0,21.2926667 C0,14.801 2.06067708,9.62930556 6.18203125,5.77758333 C10.3033854,1.92586111 15.0760417,0 20.5,0 C25.9239583,0 30.6966146,1.92586111 34.8179687,5.77758333 C38.9393229,9.62930556 41,14.801 41,21.2926667 C41,25.6204444 39.3023437,30.3269028 35.9070312,35.4120417 C32.5117188,40.4971806 27.3760417,46.0042778 20.5,51.9333333 Z" id="Shape"></path>
                    </g>
                    <rect id="Rectangle" fill="#34A8F6" x="9.56666667" y="9.56666667" width="21.8666667" height="21.8666667"></rect>
                    <g id="Group-59" transform="translate(6.8333, 8.2)">
                        <rect id="Rectangle" fill="#FFFFFF" x="7.175" y="5.38125" width="14.35" height="17.9375"></rect>
                        <g id="add_location_24dp_5F6368_FILL1_wght400_GRAD0_opsz24" fill="#34A8F6">
                            <path d="M12.55625,21.525 L16.14375,21.525 L16.14375,16.14375 L21.525,16.14375 L21.525,12.55625 L16.14375,12.55625 L16.14375,7.175 L12.55625,7.175 L12.55625,12.55625 L7.175,12.55625 L7.175,16.14375 L12.55625,16.14375 L12.55625,21.525 Z M14.35,35.875 C9.53677083,31.7792708 5.94179687,27.975026 3.56507812,24.4622656 C1.18835937,20.9495052 0,17.6983333 0,14.70875 C0,10.224375 1.44247396,6.65182292 4.32742187,3.99109375 C7.21236979,1.33036458 10.5532292,0 14.35,0 C18.1467708,0 21.4876302,1.33036458 24.3725781,3.99109375 C27.257526,6.65182292 28.7,10.224375 28.7,14.70875 C28.7,17.6983333 27.5116406,20.9495052 25.1349219,24.4622656 C22.7582031,27.975026 19.1632292,31.7792708 14.35,35.875 Z" id="Shape"></path>
                        </g>
                    </g>
                </g>
                <g id="Group-22" transform="translate(6.8333, 6.8333)">
                    <circle id="Oval" stroke="#FFFFFF" stroke-width="3" fill="#34A8F6" cx="13.6666667" cy="13.6666667" r="12.1666667"></circle>
                    <g id="add_24dp_FILL0_wght400_GRAD0_opsz24" transform="translate(7.2889, 7.2889)" fill="#FFFFFF">
                        <polygon id="Path" points="5.46666667 7.28888889 0 7.28888889 0 5.46666667 5.46666667 5.46666667 5.46666667 0 7.28888889 0 7.28888889 5.46666667 12.7555556 5.46666667 12.7555556 7.28888889 7.28888889 7.28888889 7.28888889 12.7555556 5.46666667 12.7555556"></polygon>
                    </g>
                </g>
            </g>
            <g id="Gym" transform="translate(18, 0)" fill="#FFFFFF" fill-rule="nonzero" font-family="HelveticaNeue-Medium, Helvetica Neue" font-size="18" font-weight="400">
                <text>
                    <tspan x="16.02" y="68.4618835">Gym</tspan>
                </text>
            </g>
        </g>
        <g id="admin-offices" stroke-width="1" transform="translate(695.2522, 267)">
            <g id="Group-60" transform="translate(43, 0)" fill-rule="nonzero">
                <g id="Group-53">
                    <g id="add_location_24dp_5F6368_FILL1_wght400_GRAD0_opsz24" fill="#34A8F6">
                        <path d="M17.9375,31.16 L23.0625,31.16 L23.0625,23.37 L30.75,23.37 L30.75,18.1766667 L23.0625,18.1766667 L23.0625,10.3866667 L17.9375,10.3866667 L17.9375,18.1766667 L10.25,18.1766667 L10.25,23.37 L17.9375,23.37 L17.9375,31.16 Z M20.5,51.9333333 C13.6239583,46.0042778 8.48828125,40.4971806 5.09296875,35.4120417 C1.69765625,30.3269028 0,25.6204444 0,21.2926667 C0,14.801 2.06067708,9.62930556 6.18203125,5.77758333 C10.3033854,1.92586111 15.0760417,0 20.5,0 C25.9239583,0 30.6966146,1.92586111 34.8179687,5.77758333 C38.9393229,9.62930556 41,14.801 41,21.2926667 C41,25.6204444 39.3023437,30.3269028 35.9070312,35.4120417 C32.5117188,40.4971806 27.3760417,46.0042778 20.5,51.9333333 Z" id="Shape"></path>
                    </g>
                    <rect id="Rectangle" fill="#34A8F6" x="9.56666667" y="9.56666667" width="21.8666667" height="21.8666667"></rect>
                    <g id="Group-59" transform="translate(6.8333, 8.2)">
                        <rect id="Rectangle" fill="#FFFFFF" x="7.175" y="5.38125" width="14.35" height="17.9375"></rect>
                        <g id="add_location_24dp_5F6368_FILL1_wght400_GRAD0_opsz24" fill="#34A8F6">
                            <path d="M12.55625,21.525 L16.14375,21.525 L16.14375,16.14375 L21.525,16.14375 L21.525,12.55625 L16.14375,12.55625 L16.14375,7.175 L12.55625,7.175 L12.55625,12.55625 L7.175,12.55625 L7.175,16.14375 L12.55625,16.14375 L12.55625,21.525 Z M14.35,35.875 C9.53677083,31.7792708 5.94179687,27.975026 3.56507812,24.4622656 C1.18835937,20.9495052 0,17.6983333 0,14.70875 C0,10.224375 1.44247396,6.65182292 4.32742187,3.99109375 C7.21236979,1.33036458 10.5532292,0 14.35,0 C18.1467708,0 21.4876302,1.33036458 24.3725781,3.99109375 C27.257526,6.65182292 28.7,10.224375 28.7,14.70875 C28.7,17.6983333 27.5116406,20.9495052 25.1349219,24.4622656 C22.7582031,27.975026 19.1632292,31.7792708 14.35,35.875 Z" id="Shape"></path>
                        </g>
                    </g>
                </g>
                <g id="Group-22" transform="translate(6.8333, 6.8333)">
                    <circle id="Oval" stroke="#FFFFFF" stroke-width="3" fill="#34A8F6" cx="13.6666667" cy="13.6666667" r="12.1666667"></circle>
                    <g id="add_24dp_FILL0_wght400_GRAD0_opsz24" transform="translate(7.2889, 7.2889)" fill="#FFFFFF">
                        <polygon id="Path" points="5.46666667 7.28888889 0 7.28888889 0 5.46666667 5.46666667 5.46666667 5.46666667 0 7.28888889 0 7.28888889 5.46666667 12.7555556 5.46666667 12.7555556 7.28888889 7.28888889 7.28888889 7.28888889 12.7555556 5.46666667 12.7555556"></polygon>
                    </g>
                </g>
            </g>
            <g id="Admin-Offices" transform="translate(3, 0)" fill="#FFFFFF" fill-rule="nonzero" font-family="HelveticaNeue-Medium, Helvetica Neue" font-size="18" font-weight="400">
                <text>
                    <tspan x="0" y="73">Admin Offices</tspan>
                </text>
            </g>
        </g>
        <g id="locker-room" stroke-width="1" transform="translate(550.2522, 144)">
            <g id="Group-60" transform="translate(41, 0)" fill-rule="nonzero">
                <g id="Group-53">
                    <g id="add_location_24dp_5F6368_FILL1_wght400_GRAD0_opsz24" fill="#34A8F6">
                        <path d="M17.9375,31.16 L23.0625,31.16 L23.0625,23.37 L30.75,23.37 L30.75,18.1766667 L23.0625,18.1766667 L23.0625,10.3866667 L17.9375,10.3866667 L17.9375,18.1766667 L10.25,18.1766667 L10.25,23.37 L17.9375,23.37 L17.9375,31.16 Z M20.5,51.9333333 C13.6239583,46.0042778 8.48828125,40.4971806 5.09296875,35.4120417 C1.69765625,30.3269028 0,25.6204444 0,21.2926667 C0,14.801 2.06067708,9.62930556 6.18203125,5.77758333 C10.3033854,1.92586111 15.0760417,0 20.5,0 C25.9239583,0 30.6966146,1.92586111 34.8179687,5.77758333 C38.9393229,9.62930556 41,14.801 41,21.2926667 C41,25.6204444 39.3023437,30.3269028 35.9070312,35.4120417 C32.5117188,40.4971806 27.3760417,46.0042778 20.5,51.9333333 Z" id="Shape"></path>
                    </g>
                    <rect id="Rectangle" fill="#34A8F6" x="9.56666667" y="9.56666667" width="21.8666667" height="21.8666667"></rect>
                    <g id="Group-59" transform="translate(6.8333, 8.2)">
                        <rect id="Rectangle" fill="#FFFFFF" x="7.175" y="5.38125" width="14.35" height="17.9375"></rect>
                        <g id="add_location_24dp_5F6368_FILL1_wght400_GRAD0_opsz24" fill="#34A8F6">
                            <path d="M12.55625,21.525 L16.14375,21.525 L16.14375,16.14375 L21.525,16.14375 L21.525,12.55625 L16.14375,12.55625 L16.14375,7.175 L12.55625,7.175 L12.55625,12.55625 L7.175,12.55625 L7.175,16.14375 L12.55625,16.14375 L12.55625,21.525 Z M14.35,35.875 C9.53677083,31.7792708 5.94179687,27.975026 3.56507812,24.4622656 C1.18835937,20.9495052 0,17.6983333 0,14.70875 C0,10.224375 1.44247396,6.65182292 4.32742187,3.99109375 C7.21236979,1.33036458 10.5532292,0 14.35,0 C18.1467708,0 21.4876302,1.33036458 24.3725781,3.99109375 C27.257526,6.65182292 28.7,10.224375 28.7,14.70875 C28.7,17.6983333 27.5116406,20.9495052 25.1349219,24.4622656 C22.7582031,27.975026 19.1632292,31.7792708 14.35,35.875 Z" id="Shape"></path>
                        </g>
                    </g>
                </g>
                <g id="Group-22" transform="translate(6.8333, 6.8333)">
                    <circle id="Oval" stroke="#FFFFFF" stroke-width="3" fill="#34A8F6" cx="13.6666667" cy="13.6666667" r="12.1666667"></circle>
                    <g id="add_24dp_FILL0_wght400_GRAD0_opsz24" transform="translate(7.2889, 7.2889)" fill="#FFFFFF">
                        <polygon id="Path" points="5.46666667 7.28888889 0 7.28888889 0 5.46666667 5.46666667 5.46666667 5.46666667 0 7.28888889 0 7.28888889 5.46666667 12.7555556 5.46666667 12.7555556 7.28888889 7.28888889 7.28888889 7.28888889 12.7555556 5.46666667 12.7555556"></polygon>
                    </g>
                </g>
            </g>
            <g id="Locker-Room" transform="translate(4, 0)" fill="#FFFFFF" fill-rule="nonzero" font-family="HelveticaNeue-Medium, Helvetica Neue" font-size="18" font-weight="400">
                <text>
                    <tspan x="0" y="73">Locker Room</tspan>
                </text>
            </g>
        </g>
        <g id="science-lab" stroke-width="1" transform="translate(466.2522, 117)">
            <g id="Group-60" transform="translate(43, 0)" fill-rule="nonzero">
                <g id="Group-53">
                    <g id="add_location_24dp_5F6368_FILL1_wght400_GRAD0_opsz24" fill="#34A8F6">
                        <path d="M17.9375,31.16 L23.0625,31.16 L23.0625,23.37 L30.75,23.37 L30.75,18.1766667 L23.0625,18.1766667 L23.0625,10.3866667 L17.9375,10.3866667 L17.9375,18.1766667 L10.25,18.1766667 L10.25,23.37 L17.9375,23.37 L17.9375,31.16 Z M20.5,51.9333333 C13.6239583,46.0042778 8.48828125,40.4971806 5.09296875,35.4120417 C1.69765625,30.3269028 0,25.6204444 0,21.2926667 C0,14.801 2.06067708,9.62930556 6.18203125,5.77758333 C10.3033854,1.92586111 15.0760417,0 20.5,0 C25.9239583,0 30.6966146,1.92586111 34.8179687,5.77758333 C38.9393229,9.62930556 41,14.801 41,21.2926667 C41,25.6204444 39.3023437,30.3269028 35.9070312,35.4120417 C32.5117188,40.4971806 27.3760417,46.0042778 20.5,51.9333333 Z" id="Shape"></path>
                    </g>
                    <rect id="Rectangle" fill="#34A8F6" x="9.56666667" y="9.56666667" width="21.8666667" height="21.8666667"></rect>
                    <g id="Group-59" transform="translate(6.8333, 8.2)">
                        <rect id="Rectangle" fill="#FFFFFF" x="7.175" y="5.38125" width="14.35" height="17.9375"></rect>
                        <g id="add_location_24dp_5F6368_FILL1_wght400_GRAD0_opsz24" fill="#34A8F6">
                            <path d="M12.55625,21.525 L16.14375,21.525 L16.14375,16.14375 L21.525,16.14375 L21.525,12.55625 L16.14375,12.55625 L16.14375,7.175 L12.55625,7.175 L12.55625,12.55625 L7.175,12.55625 L7.175,16.14375 L12.55625,16.14375 L12.55625,21.525 Z M14.35,35.875 C9.53677083,31.7792708 5.94179687,27.975026 3.56507812,24.4622656 C1.18835937,20.9495052 0,17.6983333 0,14.70875 C0,10.224375 1.44247396,6.65182292 4.32742187,3.99109375 C7.21236979,1.33036458 10.5532292,0 14.35,0 C18.1467708,0 21.4876302,1.33036458 24.3725781,3.99109375 C27.257526,6.65182292 28.7,10.224375 28.7,14.70875 C28.7,17.6983333 27.5116406,20.9495052 25.1349219,24.4622656 C22.7582031,27.975026 19.1632292,31.7792708 14.35,35.875 Z" id="Shape"></path>
                        </g>
                    </g>
                </g>
                <g id="Group-22" transform="translate(6.8333, 6.8333)">
                    <circle id="Oval" stroke="#FFFFFF" stroke-width="3" fill="#34A8F6" cx="13.6666667" cy="13.6666667" r="12.1666667"></circle>
                    <g id="add_24dp_FILL0_wght400_GRAD0_opsz24" transform="translate(7.2889, 7.2889)" fill="#FFFFFF">
                        <polygon id="Path" points="5.46666667 7.28888889 0 7.28888889 0 5.46666667 5.46666667 5.46666667 5.46666667 0 7.28888889 0 7.28888889 5.46666667 12.7555556 5.46666667 12.7555556 7.28888889 7.28888889 7.28888889 7.28888889 12.7555556 5.46666667 12.7555556"></polygon>
                    </g>
                </g>
            </g>
            <g id="Science-Lab" transform="translate(11, 0)" fill="#FFFFFF" fill-rule="nonzero" font-family="HelveticaNeue-Medium, Helvetica Neue" font-size="18" font-weight="400">
                <text>
                    <tspan x="0" y="73">Science Lab</tspan>
                </text>
            </g>
        </g>
        <g id="classrooms" stroke-width="1" transform="translate(224.2522, 266)">
            <g id="Group-60" transform="translate(43, 0)" fill-rule="nonzero">
                <g id="Group-53">
                    <g id="add_location_24dp_5F6368_FILL1_wght400_GRAD0_opsz24" fill="#34A8F6">
                        <path d="M17.9375,31.16 L23.0625,31.16 L23.0625,23.37 L30.75,23.37 L30.75,18.1766667 L23.0625,18.1766667 L23.0625,10.3866667 L17.9375,10.3866667 L17.9375,18.1766667 L10.25,18.1766667 L10.25,23.37 L17.9375,23.37 L17.9375,31.16 Z M20.5,51.9333333 C13.6239583,46.0042778 8.48828125,40.4971806 5.09296875,35.4120417 C1.69765625,30.3269028 0,25.6204444 0,21.2926667 C0,14.801 2.06067708,9.62930556 6.18203125,5.77758333 C10.3033854,1.92586111 15.0760417,0 20.5,0 C25.9239583,0 30.6966146,1.92586111 34.8179687,5.77758333 C38.9393229,9.62930556 41,14.801 41,21.2926667 C41,25.6204444 39.3023437,30.3269028 35.9070312,35.4120417 C32.5117188,40.4971806 27.3760417,46.0042778 20.5,51.9333333 Z" id="Shape"></path>
                    </g>
                    <rect id="Rectangle" fill="#34A8F6" x="9.56666667" y="9.56666667" width="21.8666667" height="21.8666667"></rect>
                    <g id="Group-59" transform="translate(6.8333, 8.2)">
                        <rect id="Rectangle" fill="#FFFFFF" x="7.175" y="5.38125" width="14.35" height="17.9375"></rect>
                        <g id="add_location_24dp_5F6368_FILL1_wght400_GRAD0_opsz24" fill="#34A8F6">
                            <path d="M12.55625,21.525 L16.14375,21.525 L16.14375,16.14375 L21.525,16.14375 L21.525,12.55625 L16.14375,12.55625 L16.14375,7.175 L12.55625,7.175 L12.55625,12.55625 L7.175,12.55625 L7.175,16.14375 L12.55625,16.14375 L12.55625,21.525 Z M14.35,35.875 C9.53677083,31.7792708 5.94179687,27.975026 3.56507812,24.4622656 C1.18835937,20.9495052 0,17.6983333 0,14.70875 C0,10.224375 1.44247396,6.65182292 4.32742187,3.99109375 C7.21236979,1.33036458 10.5532292,0 14.35,0 C18.1467708,0 21.4876302,1.33036458 24.3725781,3.99109375 C27.257526,6.65182292 28.7,10.224375 28.7,14.70875 C28.7,17.6983333 27.5116406,20.9495052 25.1349219,24.4622656 C22.7582031,27.975026 19.1632292,31.7792708 14.35,35.875 Z" id="Shape"></path>
                        </g>
                    </g>
                </g>
                <g id="Group-22" transform="translate(6.8333, 6.8333)">
                    <circle id="Oval" stroke="#FFFFFF" stroke-width="3" fill="#34A8F6" cx="13.6666667" cy="13.6666667" r="12.1666667"></circle>
                    <g id="add_24dp_FILL0_wght400_GRAD0_opsz24" transform="translate(7.2889, 7.2889)" fill="#FFFFFF">
                        <polygon id="Path" points="5.46666667 7.28888889 0 7.28888889 0 5.46666667 5.46666667 5.46666667 5.46666667 0 7.28888889 0 7.28888889 5.46666667 12.7555556 5.46666667 12.7555556 7.28888889 7.28888889 7.28888889 7.28888889 12.7555556 5.46666667 12.7555556"></polygon>
                    </g>
                </g>
            </g>
            <g id="Classrooms" transform="translate(12, 0)" fill="#FFFFFF" fill-rule="nonzero" font-family="HelveticaNeue-Medium, Helvetica Neue" font-size="18" font-weight="400">
                <text>
                    <tspan x="0" y="73">Classrooms</tspan>
                </text>
            </g>
        </g>
        <g id="kitchen" stroke-width="1" transform="translate(1198.2522, 136)">
            <g id="Group-60" transform="translate(38, 6)" fill-rule="nonzero">
                <g id="Group-53">
                    <g id="add_location_24dp_5F6368_FILL1_wght400_GRAD0_opsz24" fill="#34A8F6">
                        <path d="M17.9375,31.16 L23.0625,31.16 L23.0625,23.37 L30.75,23.37 L30.75,18.1766667 L23.0625,18.1766667 L23.0625,10.3866667 L17.9375,10.3866667 L17.9375,18.1766667 L10.25,18.1766667 L10.25,23.37 L17.9375,23.37 L17.9375,31.16 Z M20.5,51.9333333 C13.6239583,46.0042778 8.48828125,40.4971806 5.09296875,35.4120417 C1.69765625,30.3269028 0,25.6204444 0,21.2926667 C0,14.801 2.06067708,9.62930556 6.18203125,5.77758333 C10.3033854,1.92586111 15.0760417,0 20.5,0 C25.9239583,0 30.6966146,1.92586111 34.8179687,5.77758333 C38.9393229,9.62930556 41,14.801 41,21.2926667 C41,25.6204444 39.3023437,30.3269028 35.9070312,35.4120417 C32.5117188,40.4971806 27.3760417,46.0042778 20.5,51.9333333 Z" id="Shape"></path>
                    </g>
                    <rect id="Rectangle" fill="#34A8F6" x="9.56666667" y="9.56666667" width="21.8666667" height="21.8666667"></rect>
                    <g id="Group-59" transform="translate(6.8333, 8.2)">
                        <rect id="Rectangle" fill="#FFFFFF" x="7.175" y="5.38125" width="14.35" height="17.9375"></rect>
                        <g id="add_location_24dp_5F6368_FILL1_wght400_GRAD0_opsz24" fill="#34A8F6">
                            <path d="M12.55625,21.525 L16.14375,21.525 L16.14375,16.14375 L21.525,16.14375 L21.525,12.55625 L16.14375,12.55625 L16.14375,7.175 L12.55625,7.175 L12.55625,12.55625 L7.175,12.55625 L7.175,16.14375 L12.55625,16.14375 L12.55625,21.525 Z M14.35,35.875 C9.53677083,31.7792708 5.94179687,27.975026 3.56507812,24.4622656 C1.18835937,20.9495052 0,17.6983333 0,14.70875 C0,10.224375 1.44247396,6.65182292 4.32742187,3.99109375 C7.21236979,1.33036458 10.5532292,0 14.35,0 C18.1467708,0 21.4876302,1.33036458 24.3725781,3.99109375 C27.257526,6.65182292 28.7,10.224375 28.7,14.70875 C28.7,17.6983333 27.5116406,20.9495052 25.1349219,24.4622656 C22.7582031,27.975026 19.1632292,31.7792708 14.35,35.875 Z" id="Shape"></path>
                        </g>
                    </g>
                </g>
                <g id="Group-22" transform="translate(6.8333, 6.8333)">
                    <circle id="Oval" stroke="#FFFFFF" stroke-width="3" fill="#34A8F6" cx="13.6666667" cy="13.6666667" r="12.1666667"></circle>
                    <g id="add_24dp_FILL0_wght400_GRAD0_opsz24" transform="translate(7.2889, 7.2889)" fill="#FFFFFF">
                        <polygon id="Path" points="5.46666667 7.28888889 0 7.28888889 0 5.46666667 5.46666667 5.46666667 5.46666667 0 7.28888889 0 7.28888889 5.46666667 12.7555556 5.46666667 12.7555556 7.28888889 7.28888889 7.28888889 7.28888889 12.7555556 5.46666667 12.7555556"></polygon>
                    </g>
                </g>
            </g>
            <g id="Kitchen" transform="translate(14, 6)" fill="#FFFFFF" fill-rule="nonzero" font-family="HelveticaNeue-Medium, Helvetica Neue" font-size="18" font-weight="400">
                <text>
                    <tspan x="11.182" y="68.4618835">Kitchen</tspan>
                </text>
            </g>
        </g>
        <g id="cafeteria" stroke-width="1" transform="translate(1059.2522, 157)">
            <g id="Group-60" transform="translate(43, 0)" fill-rule="nonzero">
                <g id="Group-53">
                    <g id="add_location_24dp_5F6368_FILL1_wght400_GRAD0_opsz24" fill="#34A8F6">
                        <path d="M17.9375,31.16 L23.0625,31.16 L23.0625,23.37 L30.75,23.37 L30.75,18.1766667 L23.0625,18.1766667 L23.0625,10.3866667 L17.9375,10.3866667 L17.9375,18.1766667 L10.25,18.1766667 L10.25,23.37 L17.9375,23.37 L17.9375,31.16 Z M20.5,51.9333333 C13.6239583,46.0042778 8.48828125,40.4971806 5.09296875,35.4120417 C1.69765625,30.3269028 0,25.6204444 0,21.2926667 C0,14.801 2.06067708,9.62930556 6.18203125,5.77758333 C10.3033854,1.92586111 15.0760417,0 20.5,0 C25.9239583,0 30.6966146,1.92586111 34.8179687,5.77758333 C38.9393229,9.62930556 41,14.801 41,21.2926667 C41,25.6204444 39.3023437,30.3269028 35.9070312,35.4120417 C32.5117188,40.4971806 27.3760417,46.0042778 20.5,51.9333333 Z" id="Shape"></path>
                    </g>
                    <rect id="Rectangle" fill="#34A8F6" x="9.56666667" y="9.56666667" width="21.8666667" height="21.8666667"></rect>
                    <g id="Group-59" transform="translate(6.8333, 8.2)">
                        <rect id="Rectangle" fill="#FFFFFF" x="7.175" y="5.38125" width="14.35" height="17.9375"></rect>
                        <g id="add_location_24dp_5F6368_FILL1_wght400_GRAD0_opsz24" fill="#34A8F6">
                            <path d="M12.55625,21.525 L16.14375,21.525 L16.14375,16.14375 L21.525,16.14375 L21.525,12.55625 L16.14375,12.55625 L16.14375,7.175 L12.55625,7.175 L12.55625,12.55625 L7.175,12.55625 L7.175,16.14375 L12.55625,16.14375 L12.55625,21.525 Z M14.35,35.875 C9.53677083,31.7792708 5.94179687,27.975026 3.56507812,24.4622656 C1.18835937,20.9495052 0,17.6983333 0,14.70875 C0,10.224375 1.44247396,6.65182292 4.32742187,3.99109375 C7.21236979,1.33036458 10.5532292,0 14.35,0 C18.1467708,0 21.4876302,1.33036458 24.3725781,3.99109375 C27.257526,6.65182292 28.7,10.224375 28.7,14.70875 C28.7,17.6983333 27.5116406,20.9495052 25.1349219,24.4622656 C22.7582031,27.975026 19.1632292,31.7792708 14.35,35.875 Z" id="Shape"></path>
                        </g>
                    </g>
                </g>
                <g id="Group-22" transform="translate(6.8333, 6.8333)">
                    <circle id="Oval" stroke="#FFFFFF" stroke-width="3" fill="#34A8F6" cx="13.6666667" cy="13.6666667" r="12.1666667"></circle>
                    <g id="add_24dp_FILL0_wght400_GRAD0_opsz24" transform="translate(7.2889, 7.2889)" fill="#FFFFFF">
                        <polygon id="Path" points="5.46666667 7.28888889 0 7.28888889 0 5.46666667 5.46666667 5.46666667 5.46666667 0 7.28888889 0 7.28888889 5.46666667 12.7555556 5.46666667 12.7555556 7.28888889 7.28888889 7.28888889 7.28888889 12.7555556 5.46666667 12.7555556"></polygon>
                    </g>
                </g>
            </g>
            <g id="Cafeteria" transform="translate(19, 0)" fill="#FFFFFF" fill-rule="nonzero" font-family="HelveticaNeue-Medium, Helvetica Neue" font-size="18" font-weight="400">
                <text>
                    <tspan x="4.855" y="68.4618835">Cafeteria</tspan>
                </text>
            </g>
        </g>
    </g>
</svg>